<svg viewBox="0.103 1.119 497.3585 499.2852" width="497.3585" height="499.2852" xmlns="http://www.w3.org/2000/svg">
  <path d="M 404.227 203.924 C 404.227 248.677 389.753 290.018 365.368 323.559 L 488.355 447.095 C 500.497 459.283 500.497 479.076 488.355 491.264 C 476.211 503.451 456.491 503.451 444.348 491.264 L 321.361 367.728 C 287.943 392.299 246.754 406.729 202.165 406.729 C 90.545 406.729 0.103 315.954 0.103 203.924 C 0.103 91.894 90.545 1.119 202.165 1.119 C 313.785 1.119 404.227 91.894 404.227 203.924 Z M 202.165 344.328 C 309.851 344.328 377.155 227.325 323.312 133.722 C 298.323 90.28 252.142 63.52 202.165 63.52 C 94.478 63.52 27.173 180.523 81.017 274.126 C 106.006 317.567 152.187 344.328 202.165 344.328 Z" style=""/>
  <ellipse style="stroke: rgb(0, 0, 0); fill: rgb(0, 227, 255);" cx="204.324" cy="204.781" rx="143.118" ry="143.118"/>
</svg>